<?xml version="1.0" standalone="no"?>
<!DOCTYPE svg PUBLIC "-//W3C//DTD SVG 20010904//EN"
 "http://www.w3.org/TR/2001/REC-SVG-20010904/DTD/svg10.dtd">
<svg version="1.0" xmlns="http://www.w3.org/2000/svg"
 width="388.000000pt" height="77.000000pt" viewBox="0 0 388.000000 77.000000"
 preserveAspectRatio="xMidYMid meet">

<g transform="translate(0.000000,77.000000) scale(0.100000,-0.100000)"
fill="#000000" stroke="none">
<path d="M245 709 c-80 -40 -139 -100 -178 -179 -29 -58 -32 -73 -32 -155 0
-81 3 -97 32 -155 33 -70 84 -130 110 -130 9 0 13 6 10 14 -3 8 -9 41 -12 73
-17 143 56 313 168 394 48 35 69 38 39 6 -12 -13 -22 -30 -22 -38 0 -24 30
-59 51 -59 28 0 69 44 69 75 0 31 -23 30 -29 -1 -4 -25 -20 -44 -38 -44 -24 0
-26 28 -4 56 11 14 18 30 15 35 -3 5 11 9 31 9 50 0 99 -51 90 -94 -3 -18 1
-38 9 -51 13 -20 13 -23 -8 -35 -19 -10 -29 -9 -56 5 -29 15 -34 15 -47 2 -13
-13 -13 -21 3 -69 27 -87 4 -135 -51 -110 l-25 11 25 25 c34 34 32 48 -12 87
-21 18 -37 37 -35 41 1 5 -5 11 -13 14 -26 10 -66 -25 -92 -83 -23 -50 -25
-64 -21 -159 2 -57 0 -104 -4 -104 -5 0 -8 -6 -8 -14 0 -14 37 -32 46 -23 3 2
0 45 -7 94 -9 76 -9 99 5 154 9 35 25 73 36 83 19 20 20 20 57 -11 45 -36 48
-53 10 -71 -23 -11 -25 -16 -17 -32 14 -26 60 -49 102 -51 52 -2 97 -19 113
-42 26 -37 18 -49 -17 -27 -18 11 -42 20 -53 20 -35 0 -65 -28 -65 -61 0 -24
-4 -29 -25 -29 -14 0 -25 -4 -25 -10 0 -13 -9 -11 91 -16 69 -4 88 -2 99 10 7
9 23 16 36 16 37 0 100 65 136 138 30 60 33 75 33 157 0 76 -4 99 -27 147 -35
76 -104 148 -175 184 -51 25 -71 29 -158 31 -95 3 -103 1 -160 -28z m301 -24
c65 -32 128 -94 161 -160 47 -90 43 -234 -9 -320 l-21 -37 -12 29 c-7 16 -24
37 -39 46 -29 19 -34 42 -11 51 8 3 15 10 15 16 0 14 -33 13 -48 -2 -22 -22
-13 -51 28 -88 42 -39 50 -69 24 -94 -17 -18 -49 -22 -39 -6 4 6 1 26 -5 46
-13 38 -60 74 -97 74 -13 0 -23 1 -23 3 0 1 4 17 9 34 7 22 5 48 -4 85 -15 55
-13 70 7 50 15 -15 53 -15 81 -1 33 18 38 31 21 57 -8 13 -12 32 -9 42 9 27
-30 93 -67 115 -89 52 -242 -47 -316 -204 -32 -67 -37 -86 -42 -180 l-5 -106
-31 50 c-71 112 -78 229 -22 344 25 53 91 122 139 147 98 50 223 54 315 9z
m-15 -564 c20 -16 21 -21 10 -35 -18 -22 -64 -20 -86 4 -37 41 29 69 76 31z"/>
<path d="M2792 608 c-7 -7 -12 -40 -12 -84 l0 -71 -42 -6 c-76 -10 -144 -84
-134 -146 11 -70 76 -108 154 -90 26 7 52 16 57 21 12 10 33 322 24 358 -6 28
-28 37 -47 18z m-24 -275 l-3 -58 -37 -3 c-73 -6 -83 74 -13 104 52 23 56 20
53 -43z"/>
<path d="M3540 541 c-5 -11 -10 -33 -10 -50 0 -25 -4 -30 -26 -33 -39 -4 -55
-35 -29 -54 11 -8 25 -12 31 -10 16 6 24 -27 24 -105 0 -70 13 -95 44 -83 18
7 19 11 16 114 -1 70 0 76 22 85 30 13 30 47 0 60 -18 8 -21 15 -16 38 10 48
-34 78 -56 38z"/>
<path d="M915 543 c-11 -3 -23 -8 -28 -12 -4 -4 -8 -75 -9 -159 -2 -161 4
-188 40 -166 13 8 18 28 20 80 l3 69 68 32 c129 61 117 141 -24 156 -27 3 -59
3 -70 0z m110 -73 c6 -10 -51 -40 -75 -40 -5 0 -10 11 -10 25 0 22 4 25 39 25
22 0 43 -5 46 -10z"/>
<path d="M1161 524 c-34 -28 -41 -68 -14 -78 10 -4 25 2 39 15 17 16 30 20 48
15 39 -10 32 -28 -21 -56 -53 -28 -103 -91 -103 -129 0 -34 25 -70 57 -82 36
-13 142 10 154 33 6 10 11 65 12 121 2 113 -9 144 -64 173 -41 21 -74 17 -108
-12z m106 -195 c-6 -49 -6 -48 -51 -56 -31 -5 -36 -3 -36 15 0 20 61 82 82 82
7 0 9 -15 5 -41z"/>
<path d="M3031 538 c-23 -13 -23 -17 -26 -165 -2 -118 1 -156 11 -164 28 -23
41 -2 49 76 5 58 11 78 23 82 48 15 93 38 112 58 28 30 23 72 -10 96 -33 24
-127 34 -159 17z m114 -68 c6 -9 -44 -40 -65 -40 -5 0 -10 11 -10 25 0 22 4
25 34 25 19 0 37 -4 41 -10z"/>
<path d="M2051 524 c-50 -21 -74 -81 -69 -175 4 -99 25 -133 86 -137 33 -3 46
2 77 29 24 21 35 39 33 53 -4 31 -36 31 -68 1 -16 -15 -35 -25 -43 -22 -13 5
-32 55 -24 63 2 2 27 8 56 14 29 5 57 12 62 15 5 4 9 30 9 59 0 87 -50 129
-119 100z m54 -85 c0 -19 -6 -25 -27 -27 -32 -4 -38 17 -12 43 22 21 39 14 39
-16z"/>
<path d="M2475 532 c-58 -12 -101 -99 -92 -190 10 -115 59 -158 135 -120 45
22 75 59 66 82 -9 23 -32 20 -66 -9 -34 -29 -53 -32 -62 -9 -16 41 -7 52 49
64 59 12 75 29 75 75 0 66 -51 118 -105 107z m38 -84 c7 -25 -7 -38 -40 -38
-27 0 -28 8 -7 38 19 28 40 28 47 0z"/>
<path d="M3325 530 c-53 -21 -85 -83 -85 -165 0 -139 80 -199 165 -124 24 21
35 39 33 53 -4 31 -39 31 -68 1 -13 -14 -29 -25 -36 -25 -11 0 -38 59 -31 67
2 1 27 7 56 13 29 5 56 12 61 15 15 9 21 56 10 94 -15 58 -62 89 -105 71z m40
-91 c0 -19 -6 -25 -27 -27 -32 -4 -36 12 -11 40 21 24 38 18 38 -13z"/>
<path d="M1371 486 c-17 -20 11 -252 33 -274 15 -15 17 -15 32 -1 13 14 14 27
5 90 -8 61 -7 78 5 96 23 36 49 29 64 -17 15 -47 33 -65 56 -56 11 4 15 17 12
48 -3 36 0 44 22 55 38 19 45 3 47 -105 1 -78 4 -99 18 -107 12 -8 20 -5 31
10 12 16 15 40 12 110 -7 147 -48 193 -132 147 -30 -17 -42 -19 -53 -11 -7 7
-32 9 -58 7 -31 -4 -45 -2 -49 8 -7 18 -30 18 -45 0z"/>
<path d="M3730 451 c-52 -51 -35 -106 43 -139 30 -13 28 -29 -6 -41 -14 -5
-30 -3 -44 6 -27 18 -53 11 -53 -15 0 -20 24 -45 52 -55 25 -9 88 12 114 38
46 46 26 101 -45 126 -47 16 -32 40 32 54 22 4 28 11 25 28 -2 18 -10 23 -46
25 -36 3 -47 -1 -72 -27z"/>
<path d="M1746 461 c-4 -6 -4 -104 0 -217 6 -176 9 -206 24 -214 33 -18 44 4
41 88 l-2 79 45 12 c47 12 91 53 102 97 18 70 -42 154 -110 154 -18 0 -47 3
-64 6 -17 4 -32 1 -36 -5z m140 -86 c30 -46 0 -105 -54 -105 -16 0 -20 9 -25
57 -6 61 0 73 40 73 13 0 29 -11 39 -25z"/>
<path d="M2213 454 c-3 -9 -3 -64 0 -122 6 -109 18 -139 50 -126 14 5 17 20
17 79 0 68 2 75 26 94 15 12 32 21 39 21 20 0 26 28 9 45 -18 18 -16 18 -49 5
-20 -8 -27 -7 -31 5 -8 20 -53 19 -61 -1z"/>
</g>
</svg>
