<?xml version="1.0" standalone="no"?>
<!DOCTYPE svg PUBLIC "-//W3C//DTD SVG 20010904//EN"
 "http://www.w3.org/TR/2001/REC-SVG-20010904/DTD/svg10.dtd">
<svg version="1.0" xmlns="http://www.w3.org/2000/svg"
 width="363.000000pt" height="43.000000pt" viewBox="0 0 363.000000 43.000000"
 preserveAspectRatio="xMidYMid meet">

<g transform="translate(0.000000,43.000000) scale(0.100000,-0.100000)"
fill="#000000" stroke="none">
<path d="M129 390 c-95 -50 -135 -168 -90 -265 18 -40 60 -87 62 -69 0 5 0 30
-1 56 -2 70 19 125 68 177 24 25 41 38 38 29 -13 -43 33 -68 54 -29 13 25 13
31 0 31 -5 0 -10 -7 -10 -15 0 -8 -7 -15 -15 -15 -18 0 -19 9 -1 33 28 37 65
12 71 -48 l3 -37 -35 7 c-35 6 -35 6 -28 -22 8 -34 9 -72 1 -80 -3 -3 -13 -3
-22 1 -13 5 -15 9 -6 18 18 18 15 32 -14 63 -24 26 -26 26 -44 10 -11 -10 -24
-32 -30 -51 -13 -39 -8 -146 7 -151 7 -3 9 21 5 65 -3 52 0 76 13 101 l17 33
24 -23 c24 -22 24 -24 7 -37 -17 -13 -17 -14 6 -33 13 -10 36 -19 51 -19 16 0
36 -7 45 -16 20 -20 11 -32 -10 -14 -19 16 -65 -1 -65 -25 0 -8 -4 -15 -10
-15 -5 0 -10 -4 -10 -9 0 -13 88 -12 113 1 12 6 29 14 37 18 8 4 25 22 38 40
18 27 22 47 22 110 0 70 -3 81 -30 118 -16 23 -48 51 -69 62 -53 26 -142 26
-192 0z m177 -11 c65 -31 98 -81 102 -155 3 -45 -1 -72 -14 -99 -15 -32 -19
-35 -25 -19 -4 11 -14 26 -23 33 -12 10 -14 17 -5 27 9 11 9 14 0 14 -22 0
-24 -31 -2 -54 25 -26 26 -39 7 -55 -12 -10 -15 -7 -18 16 -2 19 -12 33 -33
43 -26 13 -30 22 -32 58 -1 33 2 41 15 40 49 -4 53 0 46 45 -8 54 -45 91 -83
82 -83 -20 -151 -116 -154 -215 -1 -27 -6 -50 -10 -50 -19 0 -39 76 -35 136 5
74 35 120 100 153 54 27 110 27 164 0z m-7 -313 c9 -10 8 -15 -4 -20 -21 -7
-45 3 -45 20 0 18 34 18 49 0z"/>
<path d="M1541 331 c-6 -11 -11 -33 -11 -50 0 -24 -5 -31 -19 -31 -10 0 -30
-9 -45 -21 -49 -39 -24 -109 40 -109 49 0 53 9 60 117 7 101 -3 137 -25 94z
m-11 -140 c0 -34 -12 -45 -40 -36 -26 8 -25 30 2 49 32 22 38 20 38 -13z"/>
<path d="M2470 310 c-10 -6 -11 -10 -2 -10 16 0 17 -131 0 -148 -9 -9 2 -12
53 -12 l64 0 -3 90 c-3 76 -6 90 -20 90 -20 0 -54 -20 -34 -20 8 0 12 -22 12
-76 0 -56 -3 -75 -12 -72 -9 3 -14 32 -16 86 -3 83 -9 93 -42 72z"/>
<path d="M3540 310 c-10 -6 -11 -10 -2 -10 8 0 12 -22 12 -75 0 -62 -2 -73
-15 -69 -10 4 -15 20 -15 50 0 37 -4 46 -25 56 -19 9 -29 8 -50 -6 -14 -9 -25
-21 -25 -26 0 -16 30 -12 36 5 8 19 20 19 28 0 4 -10 -6 -20 -30 -30 -28 -11
-35 -19 -32 -37 3 -22 8 -23 88 -26 l85 -3 -3 91 c-3 76 -6 90 -20 90 -9 0
-24 -5 -32 -10z m-50 -130 c0 -19 -20 -27 -33 -13 -8 7 11 33 24 33 5 0 9 -9
9 -20z"/>
<path d="M503 302 c-6 -4 -12 -42 -14 -92 -3 -74 -1 -85 14 -88 14 -3 17 4 17
36 0 36 4 42 37 59 47 23 63 48 43 67 -18 17 -80 29 -97 18z m57 -41 c0 -5 -7
-12 -16 -15 -22 -9 -24 -8 -24 9 0 8 9 15 20 15 11 0 20 -4 20 -9z"/>
<path d="M640 290 c-12 -12 -18 -25 -15 -30 8 -13 35 -13 35 0 0 13 27 13 35
0 3 -5 -8 -16 -25 -25 -40 -20 -64 -68 -50 -96 9 -16 20 -19 57 -18 52 3 63
20 63 95 0 34 -6 51 -25 69 -29 30 -49 31 -75 5z m60 -104 c0 -25 -27 -43 -43
-27 -5 5 -1 17 12 30 27 27 31 26 31 -3z"/>
<path d="M1673 302 c-6 -4 -12 -42 -14 -92 -3 -74 -1 -85 14 -88 14 -3 17 4
17 36 0 36 4 42 37 59 47 23 63 48 43 67 -18 17 -80 29 -97 18z m57 -41 c0 -5
-7 -12 -16 -15 -22 -9 -24 -8 -24 9 0 8 9 15 20 15 11 0 20 -4 20 -9z"/>
<path d="M1950 286 c0 -16 -6 -26 -14 -26 -24 0 -30 -22 -11 -36 10 -8 19 -31
22 -58 4 -30 10 -46 19 -46 10 0 14 15 14 55 0 42 3 55 15 55 19 0 19 17 1 27
-8 4 -14 17 -13 28 1 11 -5 21 -15 23 -14 3 -18 -3 -18 -22z"/>
<path d="M1109 268 c-22 -36 -22 -106 1 -133 19 -22 54 -18 80 10 20 22 21 25
6 31 -10 4 -24 -1 -35 -10 -18 -17 -31 -12 -31 10 0 8 15 17 33 22 26 7 33 14
35 39 6 63 -55 84 -89 31z m54 -23 c0 -6 -7 -11 -16 -13 -12 -3 -15 1 -11 13
7 17 25 17 27 0z"/>
<path d="M1348 289 c-28 -16 -40 -80 -26 -125 16 -48 54 -58 88 -24 29 29 12
48 -23 26 -23 -15 -25 -15 -31 -1 -9 24 -9 24 27 33 27 7 33 13 35 41 5 52
-27 75 -70 50z m42 -44 c0 -8 -9 -15 -20 -15 -13 0 -18 5 -14 15 4 8 12 15 20
15 8 0 14 -7 14 -15z"/>
<path d="M1811 274 c-23 -29 -29 -101 -11 -135 14 -25 61 -25 83 -1 33 36 12
58 -24 26 -16 -14 -18 -14 -28 5 -10 18 -8 21 24 27 43 8 56 41 31 79 -21 32
-49 32 -75 -1z m49 -29 c0 -8 -7 -15 -15 -15 -16 0 -20 12 -8 23 11 12 23 8
23 -8z"/>
<path d="M3255 280 c-3 -11 -11 -20 -17 -20 -7 0 -7 -4 0 -13 6 -7 12 -33 14
-57 l3 -45 60 -3 60 -3 -4 52 c-3 47 -2 51 17 45 24 -8 41 12 21 25 -8 4 -19
3 -28 -4 -11 -9 -15 -9 -18 0 -3 9 -10 10 -23 3 -24 -13 -47 -4 -53 21 -7 25
-24 24 -32 -1z m75 -84 c0 -39 -2 -44 -20 -39 -16 4 -20 14 -20 44 0 32 3 39
20 39 17 0 20 -7 20 -44z"/>
<path d="M757 273 c-7 -6 -2 -80 9 -131 2 -12 12 -22 21 -22 13 0 15 8 10 49
-4 36 -2 53 8 61 11 9 17 5 30 -19 19 -38 33 -39 37 -3 2 16 9 27 18 27 11 0
16 -14 18 -57 2 -40 7 -58 16 -58 19 0 27 57 17 104 -12 51 -23 60 -58 51 -37
-11 -94 -12 -100 -2 -5 9 -18 9 -26 0z"/>
<path d="M965 261 c-7 -6 -6 -108 1 -180 5 -41 11 -61 20 -61 10 0 14 15 14
50 0 43 3 50 20 50 53 0 79 81 39 119 -19 18 -84 33 -94 22z m79 -57 c8 -20
-11 -54 -29 -54 -10 0 -15 11 -15 35 0 28 4 35 19 35 10 0 22 -7 25 -16z"/>
<path d="M2057 252 c-24 -26 -21 -49 8 -68 28 -18 24 -38 -6 -29 -27 9 -43 -3
-28 -21 16 -20 63 -17 82 4 24 26 21 51 -8 64 -30 14 -32 28 -5 35 11 3 20 12
20 19 0 20 -44 17 -63 -4z"/>
<path d="M2268 263 c-9 -2 -20 -14 -24 -26 -7 -21 4 -34 52 -64 19 -11 19 -11
0 -19 -13 -5 -23 -2 -32 11 -15 21 -30 14 -21 -10 9 -23 72 -20 89 4 14 20 14
20 26 0 15 -23 74 -26 92 -4 11 13 8 14 -20 9 -22 -5 -35 -3 -41 7 -15 24 -10
29 31 29 33 0 40 3 40 20 0 11 -11 27 -25 36 -34 22 -71 6 -89 -37 -9 -20 -16
-27 -21 -20 -4 7 -18 16 -32 22 -13 5 -21 13 -18 19 8 13 35 13 35 0 0 -5 5
-10 10 -10 16 0 11 27 -6 34 -17 6 -19 6 -46 -1z m152 -33 c0 -13 -7 -20 -20
-20 -22 0 -23 1 -14 24 9 23 34 20 34 -4z"/>
<path d="M2615 245 c-29 -28 -31 -51 -9 -83 18 -26 75 -30 94 -7 11 13 8 14
-20 9 -22 -5 -35 -3 -41 7 -15 24 -10 29 31 29 33 0 40 3 40 20 0 11 5 20 10
20 15 0 12 -87 -2 -93 -7 -3 3 -6 22 -6 l35 -1 -4 51 c-3 47 -2 51 17 45 24
-8 41 12 21 25 -8 4 -19 3 -28 -4 -11 -9 -15 -9 -18 0 -4 10 -11 10 -31 -1
-23 -12 -30 -12 -47 0 -27 20 -42 18 -70 -11z m55 -15 c0 -13 -7 -20 -20 -20
-22 0 -23 1 -14 24 9 23 34 20 34 -4z"/>
<path d="M2892 258 c-27 -13 -38 -51 -26 -87 7 -20 17 -27 45 -29 22 -2 40 2
48 12 10 12 7 14 -21 13 -32 -2 -33 -1 -33 38 0 30 4 41 18 43 10 2 17 -3 17
-12 0 -9 7 -16 15 -16 22 0 19 27 -4 40 -24 12 -29 12 -59 -2z"/>
<path d="M2995 245 c-29 -28 -31 -51 -9 -83 18 -26 75 -30 94 -7 11 13 8 14
-20 9 -22 -5 -35 -3 -41 7 -15 24 -10 29 31 29 33 0 40 3 40 20 0 11 5 20 10
20 15 0 12 -87 -2 -93 -7 -3 3 -6 22 -6 l35 -1 -4 51 c-3 45 -1 50 15 47 23
-4 32 -62 13 -84 -10 -12 -5 -14 27 -14 30 0 35 3 26 12 -7 7 -12 31 -12 54 0
52 -20 72 -55 56 -16 -7 -25 -8 -25 -2 0 6 -12 4 -28 -4 -23 -12 -30 -12 -47
0 -27 20 -42 18 -70 -11z m55 -15 c0 -13 -7 -20 -20 -20 -22 0 -23 1 -14 24 9
23 34 20 34 -4z"/>
<path d="M1222 193 c2 -55 6 -68 21 -71 14 -3 17 4 17 41 0 37 4 46 25 55 23
11 34 31 18 33 -5 0 -25 3 -46 5 l-38 5 3 -68z"/>
</g>
</svg>
